HIERARCHY
ROOT SpineBase
{
  OFFSET 0.000000 0.000000 0.000000
  CHANNELS 6 Xposition Yposition Zposition Zrotation Xrotation Yrotation
  JOINT SpineMid
  {
    OFFSET 0.000000 28.482768 0.000000
    CHANNELS 3 Zrotation Xrotation Yrotation
    JOINT SpineShoulder
    {
      OFFSET -0.094707 21.117959 -0.681306
      CHANNELS 3 Zrotation Xrotation Yrotation
      JOINT Neck
      {
        OFFSET -0.069569 6.978948 -0.516447
        CHANNELS 3 Zrotation Xrotation Yrotation
        JOINT Head
        {
          OFFSET 3.158911 10.624506 4.503563
          CHANNELS 3 Zrotation Xrotation Yrotation
          End Site
          {
            OFFSET 0 0 0
          }
        }
      }
      JOINT ShoulderLeft
      {
        OFFSET -12.512214 -4.808371 -1.653561
        CHANNELS 3 Zrotation Xrotation Yrotation
        JOINT ElbowLeft
        {
          OFFSET -7.291073 -24.718964 9.045069
          CHANNELS 3 Zrotation Xrotation Yrotation
          JOINT WristLeft
          {
            OFFSET -0.817708 -26.312131 10.590310
            CHANNELS 3 Zrotation Xrotation Yrotation
            JOINT HandLeft
            {
              OFFSET -0.457122 -8.687010 3.833526
              CHANNELS 3 Zrotation Xrotation Yrotation
              JOINT HandTipLeft
              {
                OFFSET 1.405165 -7.644013 1.245089
                CHANNELS 3 Zrotation Xrotation Yrotation
                End Site
                {
                  OFFSET 0 0 0
                }
              }
              JOINT ThumbLeft
              {
                OFFSET -2.755325 -4.195449 -2.103726
                CHANNELS 3 Zrotation Xrotation Yrotation
                End Site
                {
                  OFFSET 0 0 0
                }
              }
            }
          }
        }
      }
      JOINT ShoulderRight
      {
        OFFSET 11.753374 -6.437714 -11.569465
        CHANNELS 3 Zrotation Xrotation Yrotation
        JOINT ElbowRight
        {
          OFFSET 6.325831 -25.754372 2.175692
          CHANNELS 3 Zrotation Xrotation Yrotation
          JOINT WristRight
          {
            OFFSET 3.691079 -19.425212 3.924258
            CHANNELS 3 Zrotation Xrotation Yrotation
            JOINT HandRight
            {
              OFFSET 0.103789 -3.471509 2.391435
              CHANNELS 3 Zrotation Xrotation Yrotation
              JOINT HandTipRight
              {
                OFFSET 2.265674 -9.162131 2.689537
                CHANNELS 3 Zrotation Xrotation Yrotation
                End Site
                {
                  OFFSET 0 0 0
                }
              }
              JOINT ThumbRight
              {
                OFFSET -5.268757 0.073856 -1.311794
                CHANNELS 3 Zrotation Xrotation Yrotation
                End Site
                {
                  OFFSET 0 0 0
                }
              }
            }
          }
        }
      }
    }
  }
  JOINT HipLeft
  {
    OFFSET -5.743603 0.597106 -0.977129
    CHANNELS 3 Zrotation Xrotation Yrotation
    JOINT KneeLeft
    {
      OFFSET -3.082154 -49.644756 3.381458
      CHANNELS 3 Zrotation Xrotation Yrotation
      JOINT AnkleLeft
      {
        OFFSET 0.123465 -34.236343 0.956098
        CHANNELS 3 Zrotation Xrotation Yrotation
        JOINT FootLeft
        {
          OFFSET 7.333754 -2.368385 -5.202153
          CHANNELS 3 Zrotation Xrotation Yrotation
          End Site
          {
            OFFSET 0 0 0
          }
        }
      }
    }
  }
  JOINT HipRight
  {
    OFFSET 4.889294 0.623374 -5.389174
    CHANNELS 3 Zrotation Xrotation Yrotation
    JOINT KneeRight
    {
      OFFSET 1.248242 -48.874539 -3.034935
      CHANNELS 3 Zrotation Xrotation Yrotation
      JOINT AnkleRight
      {
        OFFSET 0.703127 -34.219763 -3.480109
        CHANNELS 3 Zrotation Xrotation Yrotation
        JOINT FootRight
        {
          OFFSET -4.277899 -4.166906 -12.527943
          CHANNELS 3 Zrotation Xrotation Yrotation
          End Site
          {
            OFFSET 0 0 0
          }
        }
      }
    }
  }
}
MOTION
Frames: 9
Frame Time: 0.033333
44.427165 92.039905 334.481368 -0.000000 0.000000 22.535659 0.000000 0.000000 -22.535659 -0.000000 0.000000 0.000000 -0.000000 0.000000 0.000000 0.000000 0.000000 0.000000 -0.000000 0.000000 0.000000 -0.000000 0.000000 0.000000 -0.000000 0.000000 0.000000 -0.000000 0.000000 0.000000 0.000000 0.000000 0.000000 0.000000 0.000000 0.000000 -0.000000 0.000000 0.000000 -0.000000 0.000000 0.000000 -0.000000 0.000000 0.000000 -0.000000 0.000000 0.000000 0.000000 0.000000 0.000000 0.000000 0.000000 0.000000 0.000000 0.000000 -22.535659 -0.000000 0.000000 0.000000 -0.000000 0.000000 0.000000 0.000000 0.000000 0.000000 0.000000 0.000000 -22.535659 -0.000000 0.000000 0.000000 -0.000000 0.000000 0.000000 0.000000 0.000000 0.000000
44.430953 92.015510 334.501201 0.033370 -0.078867 22.877283 -0.000085 0.085636 -22.877260 -0.000000 0.000000 0.000000 -0.525039 -0.533946 0.379098 0.000000 0.000000 0.000000 -0.000000 0.000000 0.000000 -0.832997 0.253111 -0.341528 3.342071 -1.305096 1.535862 -2.478802 1.122552 -1.132405 0.000000 0.000000 0.000000 0.000000 0.000000 0.000000 -0.000000 0.000000 0.000000 -0.096594 0.992218 0.170188 -0.197789 -2.987882 -0.431848 1.419116 1.329878 0.382740 0.000000 0.000000 0.000000 0.000000 0.000000 0.000000 -0.000085 0.085636 -22.877260 -0.000000 0.000000 0.000000 -7.160085 -4.443756 2.360633 0.000000 0.000000 0.000000 -0.000085 0.085636 -22.877260 -0.000000 0.000000 0.000000 -0.000000 0.000000 0.000000 0.000000 0.000000 0.000000
44.442818 91.995368 334.521691 0.063749 -0.146457 23.165494 -0.000995 0.159726 -23.165411 -0.000000 0.000000 0.000000 -0.988175 -0.931130 0.688303 0.000000 0.000000 0.000000 -0.000000 0.000000 0.000000 -1.524156 0.472026 -0.622650 5.621174 -2.113415 2.605005 -4.014336 1.836951 -1.813852 0.000000 0.000000 0.000000 0.000000 0.000000 0.000000 -0.000000 0.000000 0.000000 -0.020631 1.638470 0.308383 -0.679168 -4.386018 -0.882409 2.406976 1.597041 0.676387 0.000000 0.000000 0.000000 0.000000 0.000000 0.000000 -0.000995 0.159726 -23.165411 -0.000000 0.000000 0.000000 -11.676145 -7.194263 4.934885 0.000000 0.000000 0.000000 -0.000995 0.159726 -23.165411 -0.000000 0.000000 0.000000 -0.000000 0.000000 0.000000 0.000000 0.000000 0.000000
44.462760 91.979481 334.542838 0.091158 -0.202826 23.401411 -0.003103 0.222348 -23.401244 -0.000000 0.000000 0.000000 -1.389052 -1.187514 0.928230 0.000000 0.000000 0.000000 -0.000000 0.000000 0.000000 -2.027699 0.640426 -0.826168 7.089514 -2.595817 3.301465 -4.622711 1.455801 -2.314374 0.000000 0.000000 0.000000 0.000000 0.000000 0.000000 -0.000000 0.000000 0.000000 0.229662 1.940598 0.412537 -1.428208 -4.485429 -1.351287 3.055608 1.044389 0.952336 0.000000 0.000000 0.000000 0.000000 0.000000 0.000000 -0.003103 0.222348 -23.401244 -0.000000 0.000000 0.000000 -13.917183 -8.365511 8.107544 0.000000 0.000000 0.000000 -0.003103 0.222348 -23.401244 -0.000000 0.000000 0.000000 -0.000000 0.000000 0.000000 0.000000 0.000000 0.000000
44.490779 91.967848 334.564641 0.115614 -0.248018 23.585920 -0.006719 0.273559 -23.585654 -0.000000 0.000000 0.000000 -1.727310 -1.300323 1.099592 0.000000 0.000000 0.000000 -0.000000 0.000000 0.000000 -2.305659 0.744138 -0.938120 7.860064 -2.832378 3.669466 -5.071391 1.473963 -2.544688 0.000000 0.000000 0.000000 0.000000 0.000000 0.000000 -0.000000 0.000000 0.000000 0.655916 1.899244 0.483645 -2.442663 -3.408293 -1.830840 3.416218 -0.234613 1.231433 0.000000 0.000000 0.000000 0.000000 0.000000 0.000000 -0.006719 0.273559 -23.585654 -0.000000 0.000000 0.000000 -14.197447 -7.981091 12.089943 0.000000 0.000000 0.000000 -0.006719 0.273559 -23.585654 -0.000000 0.000000 0.000000 -0.000000 0.000000 0.000000 0.000000 0.000000 0.000000
44.526876 91.960470 334.587101 0.137134 -0.282064 23.719666 -0.012087 0.313400 -23.719296 -0.000000 0.000000 0.000000 -2.002533 -1.267985 1.203132 0.000000 0.000000 0.000000 -0.000000 0.000000 0.000000 -2.333889 0.773709 -0.949734 7.979193 -2.856970 3.727477 -5.178332 1.336825 -2.609345 0.000000 0.000000 0.000000 0.000000 0.000000 0.000000 -0.000000 0.000000 0.000000 1.259569 1.513616 0.525755 -3.731211 -1.170261 -2.306189 3.509030 -2.241695 1.502662 0.000000 0.000000 0.000000 0.000000 0.000000 0.000000 -0.012087 0.313400 -23.719296 -0.000000 0.000000 0.000000 -12.753486 -5.885138 16.938126 0.000000 0.000000 0.000000 -0.012087 0.313400 -23.719296 -0.000000 0.000000 0.000000 -0.000000 0.000000 0.000000 0.000000 0.000000 0.000000
44.581034 91.955873 334.616210 0.169862 -0.320525 23.819735 -0.025948 0.361823 -23.819178 -0.000000 0.000000 0.000000 -2.316681 -0.755643 1.187670 0.000000 0.000000 0.000000 -0.000000 0.000000 0.000000 -2.107509 0.727642 -0.859260 7.447825 -2.738655 3.480480 -4.449569 0.565345 -2.535173 0.000000 0.000000 0.000000 0.000000 0.000000 0.000000 -0.000000 0.000000 0.000000 2.788393 -0.305174 0.510221 -6.867166 6.768310 -2.998945 2.002916 -7.939443 1.562041 0.000000 0.000000 0.000000 0.000000 0.000000 0.000000 -0.025948 0.361823 -23.819178 -0.000000 0.000000 0.000000 -7.887254 -0.540494 19.947309 0.000000 0.000000 0.000000 -0.025948 0.361823 -23.819178 -0.000000 0.000000 0.000000 -0.000000 0.000000 0.000000 0.000000 0.000000 0.000000
44.628163 91.957367 334.639986 0.196516 -0.373882 23.878551 -0.028351 0.421428 -23.877806 -0.000000 0.000000 0.000000 -2.301008 -0.526045 1.116804 0.000000 0.000000 0.000000 -0.000000 0.000000 0.000000 -1.573404 0.602308 -0.644845 6.020505 -2.206605 2.799451 -4.031875 -0.210865 -2.272498 0.000000 0.000000 0.000000 0.000000 0.000000 0.000000 -0.000000 0.000000 0.000000 4.064581 -1.230773 0.625685 -9.669502 11.401228 -3.740317 1.466509 -11.210529 1.730477 0.000000 0.000000 0.000000 0.000000 0.000000 0.000000 -0.028351 0.421428 -23.877806 -0.000000 0.000000 0.000000 -0.875977 9.486168 26.644418 0.000000 0.000000 0.000000 -0.028351 0.421428 -23.877806 -0.000000 0.000000 0.000000 -0.000000 0.000000 0.000000 0.000000 0.000000 0.000000
44.680070 91.957807 334.669022 0.196375 -0.362023 23.873811 -0.033057 0.410525 -23.873073 -0.000000 0.000000 0.000000 -2.408751 -0.187310 1.066976 0.000000 0.000000 0.000000 -0.000000 0.000000 0.000000 -0.800552 0.420809 -0.332774 3.856432 -1.174012 1.765181 -3.559620 -0.443288 -1.680882 0.000000 0.000000 0.000000 0.000000 0.000000 0.000000 0.862074 0.268238 0.136470 3.766474 -3.165279 0.379746 -11.256456 17.573104 -3.514578 1.919942 -15.950405 1.835508 0.000000 0.000000 0.000000 0.000000 0.000000 0.000000 -0.033057 0.410525 -23.873073 -0.000000 0.000000 0.000000 -1.475373 13.784866 36.498950 0.000000 0.000000 0.000000 -0.033057 0.410525 -23.873073 -0.000000 0.000000 0.000000 -0.000000 0.000000 0.000000 0.000000 0.000000 0.000000
